<?xml version="1.0" encoding="UTF-8" standalone="no"?>
<!DOCTYPE svg PUBLIC "-//W3C//DTD SVG 1.1//EN" "http://www.w3.org/Graphics/SVG/1.1/DTD/svg11.dtd">
<svg width="100%" height="100%" viewBox="0 0 1811 582" version="1.1" xmlns="http://www.w3.org/2000/svg" xmlns:xlink="http://www.w3.org/1999/xlink" xml:space="preserve" xmlns:serif="http://www.serif.com/" style="fill-rule:evenodd;clip-rule:evenodd;stroke-linecap:round;stroke-linejoin:round;stroke-miterlimit:1.5;">
    <g transform="matrix(1,0,0,1,-738.745,-1071.47)">
        <g transform="matrix(11.5437,0,0,9.33654,-2684.67,-1912.56)">
            <path d="M311.845,331.133L311.845,322.9C311.845,322.439 312.219,322.066 312.68,322.066C313.141,322.066 313.515,322.439 313.515,322.9L313.515,331.133L311.845,331.133Z" style="fill:rgb(53,51,50);fill-rule:nonzero;"/>
        </g>
        <g transform="matrix(11.5437,0,0,10.6022,-2684.67,-2320.19)">
            <path d="M297.325,323.93C297.325,323.201 303.052,322.61 306.836,322.61C310.62,322.61 311.057,323.201 311.057,323.93C311.057,324.659 310.62,325.251 306.836,325.251C303.052,325.251 297.325,324.659 297.325,323.93Z" style="fill:rgb(176,30,45);fill-rule:nonzero;"/>
        </g>
        <g transform="matrix(11.5437,0,0,10.6022,-2684.67,-2320.19)">
            <path d="M328.035,323.93C328.035,323.201 322.308,322.61 318.524,322.61C314.739,322.61 314.303,323.201 314.303,323.93C314.303,324.659 314.739,325.251 318.524,325.251C322.308,325.251 328.035,324.659 328.035,323.93Z" style="fill:rgb(176,30,45);fill-rule:nonzero;"/>
        </g>
        <g transform="matrix(9.01846,0,0,8.28293,-1895.07,-1584.12)">
            <path d="M314.535,333.602L310.825,333.602L310.825,330.923C310.825,329.899 311.655,329.068 312.68,329.068C313.705,329.068 314.535,329.899 314.535,330.923L314.535,333.602Z" style="fill:rgb(176,30,45);fill-rule:nonzero;"/>
        </g>
        <g transform="matrix(11.5437,0,0,10.6022,-2683.95,-2320.19)">
            <path d="M355.38,325.6C355.38,325.6 356.599,319.901 375,319.901L375,329.068L355.38,325.6Z" style="fill:rgb(176,30,45);fill-rule:nonzero;"/>
        </g>
        <g transform="matrix(11.5437,0,0,10.6022,-2685.38,-2320.19)">
            <path d="M394.62,325.6C394.62,325.6 393.401,319.901 375,319.901L375,329.068L394.62,325.6Z" style="fill:rgb(176,30,45);fill-rule:nonzero;"/>
        </g>
        <g transform="matrix(11.1201,0,0,11.1201,-10319.6,-5087.09)">
            <g transform="matrix(7.8063,0,0,7.8063,1157.58,604.445)">
            </g>
            <text x="994.166px" y="604.445px" style="font-family:'MyriadPro-Semibold', 'Myriad Pro', sans-serif;font-weight:600;font-size:7.806px;fill:rgb(193,0,43);">Geometr<tspan x="1024.18px 1027.74px " y="604.445px 604.445px ">y,</tspan> Robotics, and Dynamical Sy<tspan x="1123.73px " y="604.445px ">s</tspan>tems Lab</text>
        </g>
        <g transform="matrix(11.5437,0,0,9.33654,-2684.67,-1912.56)">
            <path d="M438.155,331.133L438.155,322.9C438.155,322.439 437.781,322.066 437.32,322.066C436.859,322.066 436.485,322.439 436.485,322.9L436.485,331.133L438.155,331.133Z" style="fill:rgb(53,51,50);fill-rule:nonzero;"/>
        </g>
        <g transform="matrix(2.28298e-15,-34.2431,18.352,1.03209e-15,-4846.12,14333.8)">
            <rect x="380.157" y="352.353" width="1.865" height="2.611" style="fill:rgb(51,51,51);fill-rule:nonzero;"/>
        </g>
        <g transform="matrix(9.01846,0,0,8.28293,-456.265,-1584.12)">
            <path d="M314.535,333.602L310.825,333.602L310.825,330.923C310.825,329.899 311.655,329.068 312.68,329.068C313.705,329.068 314.535,329.899 314.535,330.923L314.535,333.602Z" style="fill:rgb(176,30,45);fill-rule:nonzero;"/>
        </g>
        <g transform="matrix(11.5437,0,0,10.6022,-2684.67,-2325)">
            <path d="M452.675,323.93C452.675,323.201 446.948,322.61 443.164,322.61C439.38,322.61 438.943,323.201 438.943,323.93C438.943,324.659 439.38,325.251 443.164,325.251C446.948,325.251 452.675,324.659 452.675,323.93Z" style="fill:rgb(176,30,45);fill-rule:nonzero;"/>
        </g>
        <g transform="matrix(11.5437,0,0,10.6022,-2684.67,-2320.19)">
            <path d="M421.964,323.93C421.964,323.201 427.692,322.61 431.476,322.61C435.26,322.61 435.697,323.201 435.697,323.93C435.697,324.659 435.26,325.251 431.476,325.251C427.692,325.251 421.964,324.659 421.964,323.93Z" style="fill:rgb(176,30,45);fill-rule:nonzero;"/>
        </g>
        <g transform="matrix(11.5437,0,0,5.19428,-2684.67,-567.136)">
            <path d="M375,324.163C353.71,324.163 317.115,332.047 309.037,333.848C308.096,334.058 307.428,334.892 307.428,335.856C307.428,336.91 308.225,337.794 309.274,337.904L354.011,340.605L370.814,350.271" style="fill:rgb(51,51,51);fill-rule:nonzero;"/>
        </g>
        <g transform="matrix(11.5437,0,0,5.19428,-2684.67,-567.136)">
            <path d="M375,324.163C396.29,324.163 432.885,332.047 440.964,333.848C441.904,334.058 442.572,334.892 442.572,335.856C442.572,336.91 441.775,337.794 440.726,337.904L395.989,340.605L379.186,350.271" style="fill:rgb(51,51,51);fill-rule:nonzero;"/>
        </g>
        <g transform="matrix(11.5437,0,0,5.19428,-2683.67,-567.136)">
            <path d="M370.814,350.271L375,350.271L375,324.163L369.839,347.431L370.814,350.271Z" style="fill:rgb(51,51,51);fill-rule:nonzero;"/>
        </g>
        <g transform="matrix(11.5437,0,0,5.19428,-2685.67,-567.136)">
            <path d="M379.186,350.271L375,350.271L375,324.163L380.162,347.431L379.186,350.271Z" style="fill:rgb(51,51,51);fill-rule:nonzero;"/>
        </g>
        <g transform="matrix(25.8701,0,0,25.8701,-8038.44,-7722.73)">
            <rect x="367.978" y="352.353" width="1.865" height="2.611" style="fill:rgb(51,51,51);fill-rule:nonzero;"/>
        </g>
        <g transform="matrix(25.8701,0,0,25.8701,-8075.69,-7722.73)">
            <rect x="380.157" y="352.353" width="1.865" height="2.611" style="fill:rgb(51,51,51);fill-rule:nonzero;"/>
        </g>
        <g transform="matrix(25.8701,0,0,31.8054,-8038.44,-9824.93)">
            <path d="M370.814,357.045L375,357.045L375,350.271L370.814,350.271C369.984,350.271 369.31,350.945 369.31,351.775L369.31,355.542C369.31,356.372 369.984,357.045 370.814,357.045Z" style="fill:rgb(176,30,45);fill-rule:nonzero;"/>
        </g>
        <g transform="matrix(25.8701,0,0,31.8054,-8075.69,-9824.93)">
            <path d="M379.186,357.045L375,357.045L375,350.271L379.186,350.271C380.016,350.271 380.69,350.945 380.69,351.775L380.69,355.542C380.69,356.372 380.016,357.045 379.186,357.045Z" style="fill:rgb(176,30,45);fill-rule:nonzero;"/>
        </g>
        <g transform="matrix(6.20883,0,0,6.20883,-7926.54,-7252.82)">
            <g transform="matrix(51.6227,0,0,51.6227,1554.62,1409.28)">
            </g>
            <text x="1529.73px" y="1409.28px" style="font-family:'MyriadPro-Regular', 'Myriad Pro', sans-serif;font-size:51.623px;fill:white;">a</text>
        </g>
        <g transform="matrix(5.25965,0,0,5.14272,-6510.36,-5811.21)">
            <circle cx="1550.4" cy="1406.68" r="18.788" style="fill:none;stroke:white;stroke-width:0.8px;"/>
        </g>
        <g transform="matrix(8.42901,0,0,8.42901,-11251.3,-10024.9)">
            <g transform="matrix(52.611,0,0,52.611,1510.08,1368.59)">
            </g>
            <text x="1445.1px" y="1368.59px" style="font-family:'MyriadPro-Semibold', 'Myriad Pro', sans-serif;font-weight:600;font-size:52.611px;fill:rgb(176,6,44);">GR</text>
        </g>
        <g transform="matrix(8.36781,0,0,8.36781,-10287.7,-9942.89)">
            <g transform="matrix(52.611,0,0,52.611,1508.34,1368.59)">
            </g>
            <text x="1445.1px" y="1368.59px" style="font-family:'MyriadPro-Semibold', 'Myriad Pro', sans-serif;font-weight:600;font-size:52.611px;fill:rgb(176,6,44);">DS</text>
        </g>
    </g>
</svg>
